<svg width="69" height="83" viewBox="0 0 69 83" fill="none" xmlns="http://www.w3.org/2000/svg">
<g filter="url(#filter0_d)">
<path d="M34.3644 19.4688C26.5657 19.4688 20.2559 25.4567 20.2559 32.8355C20.2559 40.2143 34.3644 61.3606 34.3644 61.3606C34.3644 61.3606 48.4729 40.2143 48.4729 32.8355C48.4729 25.4567 42.1631 19.4688 34.3644 19.4688Z" fill="#F58021"/>
<path d="M31.0214 38.2646C31.0999 38.4354 31.2204 38.3542 31.3465 38.3514C31.5484 38.3458 31.6717 38.2114 31.8539 38.1331C31.6941 38.0855 31.5596 38.0435 31.4166 37.9987C31.3718 38.0911 31.3241 38.1919 31.2737 38.2954C31.2597 38.2954 31.2428 38.2954 31.2288 38.2954C31.212 38.2198 31.1896 38.1443 31.184 38.0687C31.1784 37.9791 31.1475 37.9343 31.0522 37.9315C30.999 37.9287 30.9457 37.8951 30.8728 37.8671C30.8196 38.0071 30.7579 38.1639 30.6851 38.357C30.5617 38.1443 30.5841 37.9455 30.5954 37.7523C30.4328 37.6599 30.4328 37.6599 30.3319 37.9651C30.3123 37.9175 30.2786 37.8699 30.2758 37.8223C30.2646 37.7047 30.217 37.6319 30.0908 37.5983C29.9899 37.5676 29.9563 37.5788 29.9535 37.6879C29.9507 37.8167 29.9367 37.9483 29.9142 38.0771C29.9058 38.1359 29.8694 38.1919 29.847 38.2506C29.833 38.2506 29.8189 38.2506 29.8077 38.2506C29.7909 38.1975 29.7713 38.1443 29.7545 38.0911C29.7068 37.9315 29.6648 37.7691 29.6143 37.6095C29.5947 37.5452 29.5639 37.5088 29.4798 37.5368C29.4237 37.5564 29.3565 37.5396 29.264 37.5396C29.2415 37.6067 29.2079 37.6991 29.1743 37.7915C29.1603 37.7943 29.1434 37.7971 29.1294 37.7999C29.1014 37.7187 29.0762 37.6375 29.0425 37.5564C29.0229 37.5088 28.9949 37.4668 28.9697 37.422C28.9388 37.4668 28.9108 37.5144 28.88 37.5592C28.8687 37.5788 28.8575 37.5983 28.8295 37.6515C28.7735 37.5424 28.7314 37.4556 28.6838 37.3632C28.3026 37.3492 28.4287 37.6879 28.3418 37.8783C28.3278 37.8811 28.3138 37.8839 28.297 37.8867C28.2661 37.7999 28.2213 37.7187 28.2101 37.6291C28.196 37.5228 28.2185 37.4164 28.2157 37.3072C28.2157 37.2708 28.1904 37.2372 28.1764 37.2008C28.1372 37.2204 28.0783 37.2288 28.0643 37.2568C28.0307 37.3408 28.0139 37.4332 27.9606 37.5312C27.941 37.4528 27.9129 37.3744 27.9073 37.296C27.8905 37.0552 27.8765 36.8173 27.8681 36.5765C27.8569 36.319 27.9466 36.1958 28.1932 36.1034C28.2857 36.067 28.3698 36.0026 28.4651 35.9662C28.5436 35.9354 28.6417 35.8962 28.7174 35.9158C28.9192 35.9634 29.1182 36.0278 29.3088 36.109C29.4658 36.1762 29.6171 36.2154 29.7909 36.2182C29.9535 36.221 30.1161 36.2798 30.273 36.3358C30.3879 36.3777 30.4832 36.4085 30.6038 36.3441C30.6654 36.3134 30.7719 36.3246 30.842 36.3553C31.0102 36.4253 31.1756 36.4113 31.3493 36.3861C31.6212 36.3497 31.8931 36.3358 32.1678 36.305C32.2491 36.2966 32.3332 36.277 32.4061 36.2434C32.5266 36.1874 32.6443 36.1202 32.7564 36.0474C32.8265 35.9998 32.8826 35.927 32.9498 35.8738C33.1068 35.745 33.2834 35.731 33.4768 35.7842C33.544 35.8038 33.6253 35.773 33.701 35.7674C33.7459 35.7646 33.7935 35.759 33.8383 35.7562C33.9785 35.745 34.1186 35.7338 34.2616 35.7255C34.3821 35.7171 34.5054 35.6863 34.6176 35.7115C34.8614 35.7674 35.0296 35.6303 35.2006 35.5099C35.2342 35.4875 35.2426 35.3531 35.209 35.3195C35.0408 35.1487 35.0548 34.964 35.1193 34.7624C35.1922 34.5328 35.3183 34.3509 35.5509 34.2641C35.75 34.1885 35.8116 34.0737 35.764 33.8694C35.7584 33.8498 35.7443 33.8302 35.7275 33.8162C35.6406 33.7378 35.5565 33.6538 35.4612 33.5866C35.4276 33.5642 35.3631 33.5698 35.3183 33.5866C35.2903 33.595 35.2538 33.6482 35.2594 33.6762C35.2931 33.8805 35.1305 34.0093 35.0688 34.1801C35.0072 34.0485 34.9147 33.9253 34.9483 33.7742C34.9707 33.6706 34.9231 33.6146 34.839 33.6062C34.7857 33.6006 34.7213 33.6482 34.6708 33.6818C34.6176 33.7182 34.5643 33.7602 34.5223 33.8106C34.4802 33.861 34.4494 33.9225 34.4017 33.9981C34.3373 33.8722 34.3849 33.7518 34.3961 33.6398C34.4045 33.5642 34.455 33.4914 34.469 33.4158C34.4774 33.3682 34.4662 33.3066 34.4382 33.2674C34.4242 33.2479 34.3541 33.2618 34.312 33.273C34.2224 33.2982 34.1355 33.329 34.0374 33.3626C33.9841 33.1975 34.1018 33.0967 34.1971 32.9987C34.2952 32.8979 34.4158 32.8167 34.5559 32.7047C34.5026 32.6767 34.4606 32.6571 34.3905 32.6208C34.5335 32.5816 34.626 32.5424 34.7241 32.534C34.8558 32.5256 34.8866 32.4388 34.9035 32.3436C34.9707 31.9321 35.1445 31.5709 35.3884 31.2406C35.4753 31.123 35.5986 31.0334 35.6995 30.927C35.7471 30.8794 35.8032 30.8234 35.82 30.7647C35.9434 30.3027 36.2657 30.0256 36.6721 29.8184C36.6833 29.8128 36.6973 29.8072 36.7029 29.8044C36.6637 29.4433 36.6273 29.0849 36.588 28.721C36.3554 28.5978 36.2461 28.3458 36.0891 28.1331C36.0751 28.1135 36.0611 28.0883 36.0415 28.0771C35.8452 27.9539 35.6182 27.8587 35.4556 27.7019C35.2987 27.5508 35.1109 27.5032 34.9287 27.4248C34.7745 27.3576 34.6204 27.2904 34.4718 27.212C34.4073 27.1784 34.3569 27.1168 34.2868 27.0553C34.1915 27.0273 34.0682 26.9993 33.9533 26.9545C33.7374 26.8705 33.5328 26.7641 33.3142 26.6941C33.1488 26.6409 32.9666 26.6353 32.7957 26.5961C32.7256 26.5793 32.6611 26.5373 32.5967 26.5037C32.5742 26.4925 32.5518 26.4729 32.5294 26.4729C32.2939 26.4645 32.0389 26.5093 31.823 26.4394C31.5427 26.347 31.2456 26.4338 30.985 26.3106C30.6682 26.1594 30.3403 26.2434 30.018 26.221C29.9815 26.2182 29.9395 26.2322 29.9058 26.221C29.5246 26.0894 29.1659 26.2546 28.7959 26.291C28.7006 26.2994 28.6025 26.2938 28.5044 26.2966C28.4679 26.2966 28.4315 26.3022 28.3951 26.3078C28.0895 26.361 27.7812 26.4142 27.4785 26.4729C27.3804 26.4925 27.2823 26.5289 27.187 26.5625C26.9571 26.6409 26.7161 26.6857 26.4919 26.7949C26.1107 26.9825 25.6958 27.1028 25.3258 27.3184C25.0848 27.4584 24.8269 27.5676 24.5691 27.6768C24.499 27.7075 24.4065 27.6852 24.3252 27.6852C24.356 27.6124 24.3728 27.5228 24.4261 27.4724C24.4906 27.408 24.5887 27.3744 24.6672 27.3212C24.7036 27.296 24.7456 27.2596 24.7596 27.2204C24.7989 27.114 24.8606 27.0469 24.9811 27.0357C25.0203 27.0329 25.0652 26.9937 25.0876 26.9601C25.1605 26.8397 25.2446 26.7501 25.3679 26.7697C25.4464 26.6997 25.5108 26.6465 25.5725 26.5905C25.6033 26.5625 25.6286 26.5317 25.6566 26.5009C25.6734 26.4813 25.6846 26.445 25.707 26.4366C25.892 26.3526 26.077 26.2742 26.262 26.1902C26.3013 26.1706 26.3433 26.1482 26.3769 26.123C26.5311 26.0082 26.7217 25.9494 26.8478 25.7815C26.8815 25.7339 27.0132 25.7507 27.1001 25.7535C27.187 25.7535 27.2374 25.7255 27.2963 25.6555C27.3552 25.5855 27.4561 25.5295 27.5458 25.5099C27.6719 25.4847 27.8008 25.5323 27.9017 25.3811C27.9438 25.3167 28.0979 25.3307 28.2017 25.2999C28.2549 25.2859 28.3362 25.2691 28.353 25.2299C28.4287 25.0676 28.5632 25.09 28.6978 25.0844C28.7791 25.0816 28.8631 25.0536 28.9444 25.0368C29.0425 25.0172 29.1434 24.9724 29.2387 24.978C29.334 24.9864 29.4013 24.978 29.4602 24.9024C29.4742 24.8856 29.4966 24.8632 29.5162 24.8632C29.7517 24.8548 29.9479 24.6448 30.2057 24.7288C30.2338 24.7372 30.273 24.712 30.3039 24.7008C30.5197 24.6224 30.7327 24.5385 30.9485 24.4685C31.0074 24.4489 31.0831 24.4545 31.1419 24.4741C31.2905 24.5217 31.411 24.4741 31.5456 24.4153C31.6212 24.3817 31.7193 24.3957 31.8062 24.3901C31.8903 24.3845 31.9744 24.3845 32.0585 24.3789C32.0753 24.3789 32.0949 24.3593 32.1117 24.3621C32.4117 24.4433 32.7368 24.2109 33.0283 24.4405C33.0619 24.4685 33.146 24.4545 33.1965 24.4321C33.3142 24.3817 33.4151 24.3425 33.5328 24.4433C33.5665 24.4713 33.6449 24.4461 33.7038 24.4489C33.7907 24.4545 33.8748 24.4601 33.9617 24.4713C34.0738 24.4853 34.1859 24.5217 34.298 24.5189C34.4242 24.5161 34.5307 24.5273 34.6316 24.6168C34.6904 24.6672 34.7913 24.6868 34.8754 24.6896C35.0184 24.6924 35.1529 24.684 35.2566 24.81C35.2678 24.824 35.2987 24.8268 35.3211 24.824C35.3435 24.824 35.3772 24.8016 35.3884 24.81C35.5257 24.9248 35.7051 24.8968 35.8593 24.9556C35.9602 24.9948 36.0471 25.0648 36.1424 25.1152C36.1676 25.1292 36.2068 25.1264 36.2349 25.1152C36.3582 25.0732 36.4339 25.1292 36.4815 25.2355C36.5264 25.3363 36.5908 25.3839 36.7058 25.3867C36.7618 25.3895 36.8515 25.4259 36.8683 25.4707C36.916 25.5911 36.9973 25.6135 37.1094 25.6135C37.143 25.6135 37.1794 25.6359 37.2131 25.6527C37.684 25.9074 38.1549 26.165 38.6286 26.4142C39.1443 26.6857 39.5367 27.0944 39.9179 27.52C40.1337 27.7635 40.3412 28.0127 40.5794 28.2451C40.5318 28.1611 40.4729 28.0827 40.4365 27.9931C40.4084 27.9287 40.3776 27.8335 40.4056 27.7859C40.5121 27.604 40.6299 27.4248 40.7644 27.2624C40.8401 27.1728 40.955 27.156 41.0699 27.2372C41.112 27.268 41.1736 27.2764 41.2297 27.2848C41.3474 27.3044 41.4567 27.3156 41.5044 27.4584C41.5184 27.5004 41.6221 27.52 41.6866 27.534C41.8744 27.5704 41.9332 27.6012 41.9893 27.7159C41.7678 27.8139 41.7791 27.8167 41.9444 28.0183C42.2556 28.3962 42.4574 28.819 42.3733 29.3285C42.3677 29.3677 42.3901 29.4181 42.4097 29.4573C42.5471 29.712 42.5443 29.9668 42.3985 30.2159C42.2836 30.4119 42.1883 30.6275 41.9332 30.6975C42.3901 31.9433 42.3873 33.1807 41.9444 34.4293C42.2724 34.4853 42.5218 34.656 42.7349 34.8884C42.7405 34.894 42.7489 34.9024 42.7545 34.908C42.9255 35.1627 43.1076 35.4035 43.3179 35.6303C43.4216 35.7422 43.4552 35.9438 43.4748 36.109C43.5001 36.3386 43.4832 36.5737 43.4804 36.8089C43.4776 37.0132 43.5533 37.1252 43.7383 37.198C43.8448 37.24 43.9485 37.2932 44.0466 37.352C44.0999 37.3856 44.1391 37.4472 44.184 37.4948C44.1756 37.5032 44.17 37.5144 44.1616 37.5228C44.1055 37.5116 44.0522 37.5032 43.9794 37.4892C43.9906 37.52 43.9906 37.5424 44.0018 37.548C44.1223 37.6375 44.2428 37.7271 44.369 37.8111C44.5399 37.9287 44.4979 38.1191 44.5428 38.2898C44.397 38.1611 44.1616 38.2786 44.0494 38.0827C44.0354 38.0575 43.9429 38.0799 43.9205 38.0799C43.9037 38.329 43.8897 38.5614 43.8757 38.791C43.8644 38.7966 43.8504 38.7994 43.8392 38.805C43.7495 38.6986 43.6598 38.5922 43.5673 38.4886C43.5393 38.4578 43.4776 38.4158 43.4692 38.4242C43.43 38.455 43.3795 38.5082 43.3851 38.5446C43.3992 38.6398 43.3571 38.6762 43.2814 38.7154C43.2366 38.7378 43.2058 38.791 43.1693 38.8329C43.1357 38.8721 43.1048 38.9169 43.074 38.9589C43.06 38.9561 43.046 38.9533 43.032 38.9505C43.0264 38.8805 43.0152 38.8106 43.0124 38.7406C43.0067 38.6398 43.0123 38.539 43.0067 38.4382C42.9983 38.3262 42.9311 38.2982 42.8386 38.3626C42.8161 38.3794 42.7937 38.4018 42.7685 38.4046C42.6115 38.4326 42.6087 38.4326 42.5555 38.5922C42.5274 38.5418 42.505 38.5138 42.4938 38.4774C42.449 38.3122 42.533 38.0827 42.6788 37.9931C42.833 37.9007 42.8554 37.6319 42.7769 37.506C42.6872 37.3632 42.5919 37.226 42.505 37.0832C42.4321 36.9629 42.3985 36.8425 42.4462 36.6969C42.4966 36.5401 42.4097 36.4197 42.25 36.3777C41.9977 36.3134 41.7482 36.2462 41.4848 36.1734C41.381 36.3218 41.2689 36.4869 41.1512 36.6493C40.8513 37.0608 40.4785 37.3716 39.9684 37.492C39.9039 37.506 39.845 37.5564 39.789 37.5927C39.6993 37.6515 39.6152 37.7243 39.4947 37.6767C39.475 37.6683 39.433 37.6907 39.4162 37.7131C38.7127 38.6482 37.8269 39.3537 36.7198 39.7484C36.2545 39.9136 35.7752 40.034 35.2931 40.1431C35.1249 40.1795 34.9343 40.1291 34.7577 40.0983C34.6848 40.0843 34.6316 40.0703 34.5671 40.1207C34.0037 40.5491 33.3843 40.6331 32.7116 40.4427C32.2911 40.3251 31.8707 40.3027 31.4418 40.4259C31.3129 40.4623 31.1644 40.4287 31.027 40.4287C30.7607 40.4259 30.4973 40.4231 30.231 40.4231C30.2086 40.4231 30.1833 40.4287 30.1637 40.4399C29.8358 40.6359 29.4798 40.5127 29.135 40.5267C28.7482 40.5435 28.4455 40.3335 28.1708 40.0843C28.0671 39.9892 28.0811 39.8548 28.2017 39.7288C28.2297 39.698 28.2493 39.6504 28.2549 39.6084C28.2745 39.474 28.2857 39.3369 28.2998 39.1997C28.3194 39.1969 28.339 39.1941 28.3558 39.1913C28.3754 39.2501 28.3894 39.3145 28.4175 39.3705C28.4483 39.4293 28.4932 39.5272 28.5352 39.53C28.6165 39.5328 28.723 39.5076 28.723 39.3761C28.723 39.3257 28.7566 39.2753 28.8099 39.2165C28.8379 39.2781 28.8631 39.3397 28.8912 39.4069C29.0089 39.3173 29.135 39.2389 29.2359 39.1353C29.2836 39.0849 29.2808 38.9869 29.3004 38.9113C29.3312 38.7994 29.334 38.6734 29.4742 38.5782C29.4882 38.777 29.4994 38.9533 29.5134 39.1269C29.533 39.1325 29.5499 39.1381 29.5695 39.1409C29.6115 39.0625 29.6508 38.9813 29.7068 38.8749C29.7433 38.9617 29.7685 39.0233 29.7965 39.0877C29.847 39.0877 29.8946 39.0877 29.9423 39.0877C29.9731 38.9981 30.0011 38.9141 30.0432 38.7854C30.0824 38.8637 30.0936 38.9113 30.1217 38.9421C30.1525 38.9757 30.2001 39.0149 30.2422 39.0149C30.3123 39.0177 30.3655 38.9813 30.3627 38.8945C30.3599 38.8385 30.3739 38.7798 30.3795 38.7014C30.458 38.749 30.5113 38.7826 30.5673 38.819C30.5982 38.763 30.629 38.7098 30.6654 38.6454C30.9177 38.777 30.7663 38.5138 30.8112 38.4606C30.9009 38.4662 30.9709 38.4718 31.0382 38.4746C31.0102 38.4158 31.0158 38.3402 31.0214 38.2646ZM36.0246 32.548C36.0134 32.5452 36.0022 32.5424 35.9938 32.5368C35.8312 32.6515 35.6687 32.7691 35.4893 32.8951C35.5285 33.0071 35.5594 33.1303 35.6182 33.2395C35.6827 33.3626 35.7724 33.4718 35.7247 33.6258C35.7163 33.6566 35.7359 33.6986 35.7443 33.735C35.8368 33.3346 35.9293 32.9427 36.0246 32.548Z" fill="#20113D"/>
</g>
<defs>
<filter id="filter0_d" x="-3" y="-2.22277" width="75" height="90" filterUnits="userSpaceOnUse" color-interpolation-filters="sRGB">
<feFlood flood-opacity="0" result="BackgroundImageFix"/>
<feColorMatrix in="SourceAlpha" type="matrix" values="0 0 0 0 0 0 0 0 0 0 0 0 0 0 0 0 0 0 127 0"/>
<feOffset dy="1.28114"/>
<feGaussianBlur stdDeviation="10"/>
<feColorMatrix type="matrix" values="0 0 0 0 0.960784 0 0 0 0 0.501961 0 0 0 0 0.129412 0 0 0 0.5 0"/>
<feBlend mode="normal" in2="BackgroundImageFix" result="effect1_dropShadow"/>
<feBlend mode="normal" in="SourceGraphic" in2="effect1_dropShadow" result="shape"/>
</filter>
</defs>
</svg>
