<svg width="22" height="21" viewBox="0 0 22 21" fill="none" xmlns="http://www.w3.org/2000/svg">
<path d="M6.79718 18.2421C8.21943 17.917 9.11861 17.0042 10.0296 16.0344C9.90614 16.0001 9.8121 15.9716 9.71807 15.9488C8.46626 15.6407 7.31436 15.1159 6.2565 14.4028C5.60415 13.9635 5.06933 13.4101 4.66382 12.7369C4.61093 12.6514 4.56979 12.5601 4.52865 12.4688C4.51689 12.446 4.51689 12.4175 4.50514 12.3376C4.90478 12.4574 5.28091 12.5715 5.65116 12.6856C5.66291 12.6742 5.66879 12.6685 5.68055 12.6571C5.63941 12.6228 5.60414 12.5886 5.563 12.5601C5.08109 12.2577 4.61092 11.944 4.12313 11.6587C3.56481 11.3278 2.97711 11.0426 2.43642 10.7003C1.71355 10.2382 1.20224 9.58786 0.831989 8.83481C0.814358 8.80058 0.808481 8.76635 0.802604 8.73212C0.796727 8.71501 0.802604 8.69219 0.802604 8.64085C1.40206 8.89186 1.96038 9.24556 2.65387 9.18281C1.2904 8.42406 0.444105 7.36296 0.502876 5.76559C1.0847 6.38742 1.65478 7.00355 2.22485 7.61967C2.2366 7.60826 2.25423 7.59115 2.26599 7.57974C2.03091 7.13476 1.75468 6.70119 1.57837 6.23339C1.40206 5.76559 1.28452 5.25786 1.22575 4.76154C1.16698 4.26521 1.214 3.75748 1.214 3.25545C1.24338 3.24975 1.27277 3.24975 1.29628 3.24404C1.5725 3.84876 1.84872 4.45347 2.12494 5.06389C2.15432 5.06389 2.18371 5.05819 2.21309 5.05819C2.20134 3.95715 2.32476 2.87893 2.84781 1.89199C2.87132 1.89199 2.89483 1.89199 2.91834 1.89769C2.91834 2.143 2.93009 2.38261 2.91834 2.62792C2.85369 3.83164 3.32973 4.85852 4.04085 5.79412C4.51689 6.41595 5.1046 6.93509 5.73932 7.40289C6.57386 8.01902 7.5083 8.4697 8.44275 8.91468C9.31256 9.32543 10.0766 9.88451 10.7936 10.512C11.2285 10.8943 11.681 11.2537 12.1277 11.6245C12.2511 11.7272 12.3745 11.8413 12.5155 11.9668C12.7447 11.4533 12.9563 10.9741 13.1679 10.4892C13.6792 9.33684 14.4491 8.36701 15.4012 7.5284C16.1593 6.86093 16.9292 6.21628 17.6873 5.55451C18.7158 4.65314 19.3564 3.53499 19.5621 2.20005C19.6385 1.72655 19.6032 1.23022 19.6209 0.751014C19.6209 0.671146 19.6209 0.585573 19.6503 0.5C20.0205 1.3215 20.1263 2.18864 20.2145 3.09001C20.5788 2.3712 20.9373 1.65238 21.3017 0.927865C21.3311 0.93357 21.3605 0.939274 21.384 0.944979C21.3429 1.68091 21.337 2.41684 21.2488 3.14706C21.1607 3.87158 20.9902 4.58468 20.8551 5.27497C21.0372 5.00114 21.2488 4.68737 21.4957 4.32797C21.5133 5.02967 21.4898 5.66291 21.1842 6.26192C20.8844 6.85522 20.4025 7.3002 19.8795 7.73948C20.1674 7.79653 20.3966 7.69954 20.62 7.59115C20.8374 7.48846 21.0372 7.36296 21.29 7.22033C21.2665 7.32873 21.2547 7.40289 21.2312 7.47135C20.9138 8.30426 20.4202 9.02307 19.6796 9.55363C19.2271 9.88451 18.7452 10.1755 18.2985 10.5063C18.0164 10.7174 17.8166 10.8486 17.8049 11.1396C17.9929 11.0768 18.1751 11.0198 18.3926 10.9513C18.0282 12.1607 17.0644 12.9024 16.224 13.7695C16.3062 13.8038 16.3709 13.8266 16.4355 13.8551C16.8528 14.0205 17.2054 14.2716 17.4464 14.6481C17.6286 14.9276 17.6697 15.2243 17.5933 15.5494C17.5698 15.6464 17.6286 15.7776 17.6932 15.8632C17.893 16.1599 17.9224 16.4622 17.7461 16.7703C17.5757 17.0726 17.2936 17.221 16.9233 17.2438C17.2172 16.7304 17.2054 16.6163 16.8058 16.3424C16.7646 16.5535 16.7235 16.7532 16.6824 16.9643C16.4179 16.7532 16.1887 16.5022 15.9007 16.3538C15.6069 16.2055 15.2601 16.1656 14.9075 16.0686C14.9251 16.1427 14.9251 16.1884 14.9428 16.2283C15.2013 16.8616 15.4423 17.5062 15.7362 18.128C15.8419 18.3562 16.0535 18.5502 16.2475 18.7213C16.4296 18.8811 16.5589 18.824 16.6295 18.5901C16.6765 18.4247 16.6941 18.2535 16.7235 18.0881C16.7529 17.9398 16.8352 17.877 16.941 17.9227C16.9645 18.0596 16.9938 18.168 16.9997 18.2764C17.0056 18.3905 17.0056 18.5103 16.9821 18.6187C16.9586 18.7156 16.8939 18.8069 16.8469 18.8982C16.8587 18.9153 16.8763 18.9267 16.8881 18.9438C17.0467 18.8412 17.2113 18.7385 17.3641 18.6301C17.4405 18.573 17.4993 18.4989 17.5698 18.4361C17.846 18.1908 17.9812 18.2079 18.1751 18.5331C18.0693 18.5217 17.9753 18.5046 17.8754 18.4932C17.8578 18.9153 17.3994 18.9096 17.2113 19.1949C17.4346 19.1834 17.6344 19.1663 17.8343 19.1663C18.1399 19.1663 18.2633 19.3032 18.2045 19.6056C18.1164 19.4002 17.9694 19.4288 17.8284 19.4858C17.5287 19.6056 17.223 19.5657 16.9174 19.5257C16.5825 19.4801 16.2827 19.5257 15.9947 19.7197C15.8067 19.8509 15.6127 19.9764 15.3424 19.9194C15.2836 19.908 15.1778 20.0962 15.1014 20.1875C14.978 20.0278 14.9839 19.8737 15.1896 19.7482C15.3189 19.6684 15.4717 19.6284 15.6127 19.5714C15.7009 19.5371 15.7949 19.5086 15.8713 19.4516C16.0418 19.3261 16.0418 19.2462 15.8772 19.1207C15.4717 18.8012 15.0662 18.4874 14.6607 18.168C14.6254 18.1395 14.5843 18.1166 14.549 18.1109C14.0142 18.0653 13.7203 17.723 13.497 17.3065C13.45 17.2153 13.4147 17.0898 13.2854 17.1696C13.2149 17.2153 13.1385 17.3522 13.162 17.4206C13.2854 17.8713 13.5558 18.225 13.973 18.4532C14.1552 18.4247 14.1905 17.9911 14.4491 18.2535C14.4256 18.3505 14.4079 18.4076 14.3962 18.4646C14.4667 18.476 14.5431 18.5046 14.6136 18.4989C14.7312 18.4989 14.8487 18.476 14.9663 18.4646C14.9721 18.4874 14.978 18.516 14.9839 18.5388C14.9016 18.5787 14.8193 18.6187 14.7077 18.6757C15.2719 18.7042 15.2719 18.7042 15.2954 18.9952C15.1132 18.824 14.9369 18.961 14.7606 18.9838C14.3609 19.0294 14.0847 19.212 13.9378 19.5942C13.8908 19.714 13.7615 19.7996 13.6439 19.9308C13.6498 19.9479 13.6674 20.0049 13.6792 20.0677C13.4265 19.9821 13.3677 19.8623 13.4911 19.6455C13.5852 19.4801 13.7086 19.3261 13.8202 19.1663C13.9202 19.0237 13.9202 18.9039 13.7321 18.824C13.4265 18.6928 13.1679 18.4817 12.8094 18.4475C12.6742 18.4361 12.5567 18.2593 12.4215 18.1452C12.3569 18.2478 12.2687 18.3676 12.1982 18.5046C11.9925 18.9096 11.6457 19.1549 11.2108 19.269C9.84149 19.6341 8.54854 19.4288 7.34375 18.7042C7.14393 18.5901 6.997 18.4133 6.79718 18.2421Z" fill="#F58021"/>
</svg>
