<svg width="22" height="20" viewBox="0 0 22 20" fill="none" xmlns="http://www.w3.org/2000/svg">
<path d="M6.79718 17.7421C8.21943 17.417 9.11861 16.5042 10.0296 15.5344C9.90614 15.5001 9.8121 15.4716 9.71807 15.4488C8.46626 15.1407 7.31436 14.6159 6.2565 13.9028C5.60415 13.4635 5.06933 12.9101 4.66382 12.2369C4.61093 12.1514 4.56979 12.0601 4.52865 11.9688C4.51689 11.946 4.51689 11.9175 4.50514 11.8376C4.90478 11.9574 5.28091 12.0715 5.65116 12.1856C5.66291 12.1742 5.66879 12.1685 5.68055 12.1571C5.63941 12.1228 5.60414 12.0886 5.563 12.0601C5.08109 11.7577 4.61092 11.444 4.12313 11.1587C3.56481 10.8278 2.97711 10.5426 2.43642 10.2003C1.71355 9.73821 1.20224 9.08786 0.831989 8.33481C0.814358 8.30058 0.808481 8.26635 0.802604 8.23212C0.796727 8.21501 0.802604 8.19219 0.802604 8.14085C1.40206 8.39186 1.96038 8.74556 2.65387 8.68281C1.2904 7.92406 0.444105 6.86296 0.502876 5.26559C1.0847 5.88742 1.65478 6.50355 2.22485 7.11967C2.2366 7.10826 2.25423 7.09115 2.26599 7.07974C2.03091 6.63476 1.75468 6.20119 1.57837 5.73339C1.40206 5.26559 1.28452 4.75786 1.22575 4.26154C1.16698 3.76521 1.214 3.25748 1.214 2.75545C1.24338 2.74975 1.27277 2.74975 1.29628 2.74404C1.5725 3.34876 1.84872 3.95347 2.12494 4.56389C2.15432 4.56389 2.18371 4.55819 2.21309 4.55819C2.20134 3.45715 2.32476 2.37893 2.84781 1.39199C2.87132 1.39199 2.89483 1.39199 2.91834 1.39769C2.91834 1.643 2.93009 1.88261 2.91834 2.12792C2.85369 3.33164 3.32973 4.35852 4.04085 5.29412C4.51689 5.91595 5.1046 6.43509 5.73932 6.90289C6.57386 7.51902 7.5083 7.9697 8.44275 8.41468C9.31256 8.82543 10.0766 9.38451 10.7936 10.012C11.2285 10.3943 11.681 10.7537 12.1277 11.1245C12.2511 11.2272 12.3745 11.3413 12.5155 11.4668C12.7447 10.9533 12.9563 10.4741 13.1679 9.98922C13.6792 8.83684 14.4491 7.86701 15.4012 7.0284C16.1593 6.36093 16.9292 5.71628 17.6873 5.05451C18.7158 4.15314 19.3564 3.03499 19.5621 1.70005C19.6385 1.22655 19.6032 0.730223 19.6209 0.251014C19.6209 0.171146 19.6209 0.085573 19.6503 0C20.0205 0.821501 20.1263 1.68864 20.2145 2.59001C20.5788 1.8712 20.9373 1.15238 21.3017 0.427865C21.3311 0.43357 21.3605 0.439274 21.384 0.444979C21.3429 1.18091 21.337 1.91684 21.2488 2.64706C21.1607 3.37158 20.9902 4.08468 20.8551 4.77497C21.0372 4.50114 21.2488 4.18737 21.4957 3.82797C21.5133 4.52967 21.4898 5.16291 21.1842 5.76192C20.8844 6.35522 20.4025 6.8002 19.8795 7.23948C20.1674 7.29653 20.3966 7.19954 20.62 7.09115C20.8374 6.98846 21.0372 6.86296 21.29 6.72033C21.2665 6.82873 21.2547 6.90289 21.2312 6.97135C20.9138 7.80426 20.4202 8.52307 19.6796 9.05363C19.2271 9.38451 18.7452 9.67546 18.2985 10.0063C18.0164 10.2174 17.8166 10.3486 17.8049 10.6396C17.9929 10.5768 18.1751 10.5198 18.3926 10.4513C18.0282 11.6607 17.0644 12.4024 16.224 13.2695C16.3062 13.3038 16.3709 13.3266 16.4355 13.3551C16.8528 13.5205 17.2054 13.7716 17.4464 14.1481C17.6286 14.4276 17.6697 14.7243 17.5933 15.0494C17.5698 15.1464 17.6286 15.2776 17.6932 15.3632C17.893 15.6599 17.9224 15.9622 17.7461 16.2703C17.5757 16.5726 17.2936 16.721 16.9233 16.7438C17.2172 16.2304 17.2054 16.1163 16.8058 15.8424C16.7646 16.0535 16.7235 16.2532 16.6824 16.4643C16.4179 16.2532 16.1887 16.0022 15.9007 15.8538C15.6069 15.7055 15.2601 15.6656 14.9075 15.5686C14.9251 15.6427 14.9251 15.6884 14.9428 15.7283C15.2013 16.3616 15.4423 17.0062 15.7362 17.628C15.8419 17.8562 16.0535 18.0502 16.2475 18.2213C16.4296 18.3811 16.5589 18.324 16.6295 18.0901C16.6765 17.9247 16.6941 17.7535 16.7235 17.5881C16.7529 17.4398 16.8352 17.377 16.941 17.4227C16.9645 17.5596 16.9938 17.668 16.9997 17.7764C17.0056 17.8905 17.0056 18.0103 16.9821 18.1187C16.9586 18.2156 16.8939 18.3069 16.8469 18.3982C16.8587 18.4153 16.8763 18.4267 16.8881 18.4438C17.0467 18.3412 17.2113 18.2385 17.3641 18.1301C17.4405 18.073 17.4993 17.9989 17.5698 17.9361C17.846 17.6908 17.9812 17.7079 18.1751 18.0331C18.0693 18.0217 17.9753 18.0046 17.8754 17.9932C17.8578 18.4153 17.3994 18.4096 17.2113 18.6949C17.4346 18.6834 17.6344 18.6663 17.8343 18.6663C18.1399 18.6663 18.2633 18.8032 18.2045 19.1056C18.1164 18.9002 17.9694 18.9288 17.8284 18.9858C17.5287 19.1056 17.223 19.0657 16.9174 19.0257C16.5825 18.9801 16.2827 19.0257 15.9947 19.2197C15.8067 19.3509 15.6127 19.4764 15.3424 19.4194C15.2836 19.408 15.1778 19.5962 15.1014 19.6875C14.978 19.5278 14.9839 19.3737 15.1896 19.2482C15.3189 19.1684 15.4717 19.1284 15.6127 19.0714C15.7009 19.0371 15.7949 19.0086 15.8713 18.9516C16.0418 18.8261 16.0418 18.7462 15.8772 18.6207C15.4717 18.3012 15.0662 17.9874 14.6607 17.668C14.6254 17.6395 14.5843 17.6166 14.549 17.6109C14.0142 17.5653 13.7203 17.223 13.497 16.8065C13.45 16.7153 13.4147 16.5898 13.2854 16.6696C13.2149 16.7153 13.1385 16.8522 13.162 16.9206C13.2854 17.3713 13.5558 17.725 13.973 17.9532C14.1552 17.9247 14.1905 17.4911 14.4491 17.7535C14.4256 17.8505 14.4079 17.9076 14.3962 17.9646C14.4667 17.976 14.5431 18.0046 14.6136 17.9989C14.7312 17.9989 14.8487 17.976 14.9663 17.9646C14.9721 17.9874 14.978 18.016 14.9839 18.0388C14.9016 18.0787 14.8193 18.1187 14.7077 18.1757C15.2719 18.2042 15.2719 18.2042 15.2954 18.4952C15.1132 18.324 14.9369 18.461 14.7606 18.4838C14.3609 18.5294 14.0847 18.712 13.9378 19.0942C13.8908 19.214 13.7615 19.2996 13.6439 19.4308C13.6498 19.4479 13.6674 19.5049 13.6792 19.5677C13.4265 19.4821 13.3677 19.3623 13.4911 19.1455C13.5852 18.9801 13.7086 18.8261 13.8202 18.6663C13.9202 18.5237 13.9202 18.4039 13.7321 18.324C13.4265 18.1928 13.1679 17.9817 12.8094 17.9475C12.6742 17.9361 12.5567 17.7593 12.4215 17.6452C12.3569 17.7478 12.2687 17.8676 12.1982 18.0046C11.9925 18.4096 11.6457 18.6549 11.2108 18.769C9.84149 19.1341 8.54854 18.9288 7.34375 18.2042C7.14393 18.0901 6.997 17.9133 6.79718 17.7421Z" fill="white"/>
</svg>
