<svg width="22" height="20" viewBox="0 0 22 20" fill="none" xmlns="http://www.w3.org/2000/svg">
<path fill-rule="evenodd" clip-rule="evenodd" d="M15.3778 8.74498C15.5796 9.17663 15.7815 9.60827 15.9907 10.059C15.9378 10.1024 15.8842 10.1471 15.8298 10.1926L15.8298 10.1927L15.8297 10.1927C15.7068 10.2954 15.5798 10.4015 15.4475 10.5021C15.3005 10.6133 15.1546 10.7261 15.0089 10.8388L15.0089 10.8388C14.6489 11.1172 14.2894 11.3952 13.9132 11.6481C12.5588 12.561 11.0649 12.9316 9.45726 12.7864C9.06452 12.752 8.64975 12.6107 8.48458 12.4923C8.57992 11.8053 8.67161 11.1374 8.76329 10.4696L8.76353 10.4677C8.75252 10.4639 8.74059 10.4611 8.72866 10.4582C8.71674 10.4553 8.70481 10.4525 8.6938 10.4486C8.65802 10.5242 8.62255 10.5998 8.58712 10.6752C8.49895 10.863 8.41105 11.0503 8.31941 11.2355C8.08138 11.725 7.92177 12.2448 7.7618 12.7657C7.71703 12.9116 7.67224 13.0574 7.62568 13.2028C7.33204 14.1081 6.80716 14.8033 5.91523 15.1433C5.87119 15.1624 5.83448 15.2388 5.81613 15.2961C5.78017 15.4149 5.74821 15.535 5.71627 15.6551L5.71626 15.6551C5.67322 15.8169 5.63022 15.9786 5.57755 16.1365C5.37567 16.7476 4.99761 17.2213 4.48741 17.5842C4.25984 17.7446 4.03227 17.9089 3.81571 18.0846C3.62852 18.2336 3.63586 18.2985 3.81938 18.4475C3.85529 18.4767 3.8914 18.5054 3.92742 18.534L3.92746 18.5341C4.04241 18.6255 4.15645 18.7162 4.25984 18.818C4.42868 18.9861 4.50576 19.2 4.44337 19.4445C4.42868 19.5018 4.34426 19.5782 4.29287 19.5782C3.08895 19.5858 1.88136 19.5858 0.677439 19.582C0.633394 19.582 0.570995 19.5667 0.545301 19.5362C0.508417 19.4894 0.470657 19.4429 0.432786 19.3962C0.297299 19.2292 0.160398 19.0604 0.0571264 18.8753C-0.00894247 18.7569 -0.0162836 18.5583 0.0277623 18.4246C0.45354 17.0762 1.00044 15.7965 2.03185 14.8148C2.0759 14.7728 2.10159 14.6811 2.10526 14.6161C2.13095 13.6459 2.24107 12.6833 2.47965 11.7474C2.6852 10.9376 2.90543 10.1278 3.2945 9.3829C4.01025 8.02302 4.93521 6.88851 6.35569 6.27733C7.57797 5.754 8.77088 5.83422 9.93442 6.45304C10.0942 6.53876 10.2386 6.65627 10.3794 6.77074L10.3794 6.77076C10.4456 6.82463 10.511 6.87782 10.5768 6.92671C10.4446 6.62876 10.2134 6.38429 9.96379 6.15891C10.1988 6.06587 10.4347 5.97581 10.6702 5.88592L10.6703 5.88589C11.7109 5.48865 12.7434 5.09451 13.6563 4.45906C13.6965 4.60464 13.736 4.75168 13.7757 4.89954C13.8266 5.08924 13.878 5.28028 13.9316 5.47133C13.9463 5.51717 13.9756 5.55919 14.0123 5.59739C13.9389 5.12372 13.9389 4.65006 14.1114 4.21459C14.2729 3.80204 14.4675 3.38567 14.7171 3.0266C15.33 2.15567 16.0678 1.39933 16.89 0.738491C16.923 0.711751 16.9561 0.685012 16.9928 0.658273C17.0517 0.619122 17.1101 0.577407 17.1686 0.535604L17.1687 0.535582C17.4528 0.332674 17.7397 0.127692 18.1049 0.203706C18.7069 0.325943 19.2098 0.654453 19.5548 1.19306C19.6539 1.34585 19.7677 1.45281 19.9255 1.51011C20.3366 1.65908 20.6449 1.91502 20.8431 2.33138C20.915 2.48351 21.0186 2.61823 21.1224 2.75317C21.1724 2.81814 21.2224 2.88317 21.2689 2.95021C21.3643 3.08772 21.3827 3.20232 21.2762 3.36275C21.1882 3.49645 21.1441 3.67599 21.1184 3.84024C21.0854 4.03506 21.1588 4.16111 21.357 4.26807C21.8745 4.5431 22.1755 5.1581 21.8892 5.78074C21.8415 5.88388 21.7975 5.98702 21.7571 6.09398C21.5662 6.60584 21.2028 6.78538 20.7036 6.60584L20.6784 6.59725C20.653 6.58865 20.6275 6.58006 20.6082 6.57146C20.5165 6.70516 20.4247 6.83503 20.3256 6.97255C20.3115 6.95465 20.2994 6.9416 20.2902 6.93163L20.2902 6.93161C20.2778 6.9182 20.2705 6.91037 20.2705 6.90379C20.2999 6.57528 20.109 6.38047 19.8961 6.18183C18.9014 5.24978 17.6828 5.41786 16.8496 5.95646C16.9433 5.9367 17.0361 5.91512 17.1286 5.8936C17.3044 5.85273 17.4792 5.81209 17.6571 5.78456C18.7142 5.63177 19.6319 6.12453 20.12 7.11007C20.4577 7.79001 20.6963 8.5005 20.6376 9.2874L20.6369 9.2966C20.6261 9.45072 20.6143 9.6186 20.5532 9.75343C20.3403 10.2271 20.4063 10.7046 20.5238 11.1744L20.5454 11.262L20.5455 11.262C20.6557 11.7084 20.7688 12.1667 20.9789 12.561C21.7901 14.0775 21.8562 15.7163 21.7975 17.3779C21.7718 18.0922 21.5515 18.7263 20.9863 19.1886C20.6706 19.4483 20.3329 19.6278 19.9108 19.5935C19.7163 19.5782 19.5181 19.5744 19.3235 19.5935C18.9565 19.6355 18.7032 19.4445 18.4867 19.1771C18.2518 18.8906 18.1453 18.5583 18.2114 18.1839C18.2297 18.0846 18.2995 17.9624 18.3802 17.9165C18.4817 17.8605 18.5557 17.9383 18.6308 18.0171C18.6426 18.0296 18.6545 18.0421 18.6665 18.054C18.7797 18.168 18.9291 18.2517 19.0715 18.3315L19.0739 18.3329C19.1987 18.4017 19.2648 18.3444 19.2795 18.1992C19.2942 18.0273 19.2428 17.8822 19.118 17.7714C18.4169 17.1487 17.9765 16.3351 17.5801 15.4909C17.2754 14.8377 17.0809 14.1539 17.0111 13.4282C16.9597 12.8819 17.0515 12.351 17.1506 11.82C17.1983 11.5793 17.246 11.3349 17.2607 11.0866C17.2938 10.5938 17.1286 10.1774 16.7212 9.91387C16.2183 9.58917 15.7705 9.19955 15.4108 8.7106C15.4145 8.72206 15.3961 8.73352 15.3778 8.74498ZM16.4532 10.481C16.6661 10.6606 16.7432 10.8669 16.6992 11.1228C16.672 11.2883 16.6421 11.4533 16.6123 11.6183L16.6122 11.6185L16.6122 11.6185C16.5573 11.922 16.5023 12.2255 16.4643 12.5323C16.3395 13.5675 16.5707 14.5454 16.9561 15.4889C17.0258 15.6608 17.0332 15.7983 16.9598 15.9702C16.6258 16.7571 16.2624 17.5249 15.7926 18.2392C15.1833 19.1637 14.3317 19.5915 13.2673 19.5915C13.2044 19.5915 13.1418 19.5925 13.0793 19.5935H13.0793C12.9341 19.596 12.7896 19.5983 12.6433 19.5877C12.5699 19.5838 12.4781 19.5342 12.4377 19.4731C12.0964 18.9918 12.1551 17.9948 12.5478 17.5555C12.5919 17.5058 12.691 17.46 12.746 17.4791C12.7879 17.4946 12.8176 17.5609 12.845 17.6221C12.8512 17.636 12.8574 17.6497 12.8635 17.6624C12.8786 17.694 12.8897 17.7287 12.9006 17.7632C12.9188 17.8208 12.9369 17.8778 12.9736 17.9184C13.0397 17.9986 13.1535 18.1132 13.2269 18.0979C13.304 18.0826 13.381 17.9413 13.4141 17.842C13.4471 17.7465 13.4361 17.6281 13.4177 17.5287C13.3911 17.3889 13.3578 17.25 13.3245 17.1115L13.3245 17.1114C13.2659 16.8677 13.2076 16.6249 13.1865 16.379C13.0874 15.275 13.1828 14.1902 13.6416 13.1702C13.7481 12.9372 13.8692 12.7004 14.027 12.5018C14.1922 12.2879 14.3978 12.1007 14.607 11.9326C14.8217 11.757 15.0429 11.591 15.2645 11.4248C15.4141 11.3125 15.5638 11.2001 15.7118 11.0846C15.8768 10.9539 16.0401 10.8197 16.2063 10.6833L16.2063 10.6833C16.2878 10.6164 16.3699 10.5489 16.4532 10.481ZM8.56403 13.1962C8.46974 13.1672 8.375 13.138 8.2785 13.1085C8.2458 13.1822 8.21411 13.257 8.18231 13.332C8.12843 13.4592 8.07423 13.5871 8.01422 13.712C7.65084 14.476 7.17368 15.1406 6.43591 15.5685C6.37718 15.6028 6.33681 15.6907 6.31478 15.7633C6.1386 16.3783 5.91837 16.9665 5.51095 17.4631C5.48158 17.5013 5.45589 17.5701 5.4669 17.6121C5.59537 18.0361 5.72751 18.4601 5.87065 18.8765C5.89635 18.9491 5.97343 19.0178 6.04317 19.0598C6.30377 19.2126 6.56438 19.3616 6.83232 19.503C6.92042 19.5488 7.02319 19.5908 7.11862 19.5908C7.89482 19.5965 8.66895 19.5958 9.44411 19.5951C9.70265 19.5949 9.9613 19.5946 10.2202 19.5946H10.4478C10.4231 19.542 10.403 19.4906 10.3839 19.442C10.3463 19.346 10.3129 19.2607 10.2569 19.1974C10.1174 19.0407 9.95958 18.8918 9.79074 18.7734C9.63219 18.6623 9.46005 18.5702 9.28855 18.4784C9.24169 18.4533 9.19488 18.4282 9.1484 18.4028C8.96488 18.2997 8.88413 18.1469 8.89881 17.933C8.90126 17.882 8.90697 17.8311 8.91268 17.7802C8.91553 17.7547 8.91839 17.7292 8.92083 17.7038C8.93206 17.5881 8.94603 17.4721 8.96002 17.356C8.99177 17.0923 9.02361 16.828 9.02361 16.5655C9.02361 16.0192 8.7887 15.5494 8.45468 15.1368C9.03462 14.6861 9.1484 14.0482 9.20346 13.3911C8.9829 13.3252 8.77459 13.261 8.56403 13.1962Z" fill="#F58021"/>
</svg>
