<svg width="12" height="21" viewBox="0 0 12 21" fill="none" xmlns="http://www.w3.org/2000/svg">
<path fill-rule="evenodd" clip-rule="evenodd" d="M5.79726 0.600527C6.11096 0.582967 6.41014 0.647355 6.71803 0.755644C6.70786 0.784679 6.69843 0.813216 6.68917 0.841254C6.66668 0.909309 6.64517 0.974428 6.61637 1.03661C6.52779 1.22828 6.43777 1.41994 6.34774 1.61161L6.34774 1.61162L6.34773 1.61163L6.34773 1.61164L6.34772 1.61165L6.34772 1.61166L6.34771 1.61167L6.3477 1.61168L6.3477 1.6117L6.34769 1.61171L6.34769 1.61172C6.25764 1.80342 6.1676 1.99512 6.07901 2.18682L6.07876 2.18736L6.07876 2.18736L6.07875 2.18737C6.03106 2.29077 6.00783 2.34112 5.96878 2.36234C5.93171 2.38249 5.88039 2.37641 5.78035 2.36455L5.76241 2.36242C5.66074 2.35072 5.59974 2.30682 5.58522 2.20731C5.57906 2.1654 5.57126 2.12329 5.56345 2.08113L5.56345 2.08112L5.56345 2.08111L5.56345 2.0811L5.56345 2.08109L5.56345 2.08108L5.56344 2.08106L5.56344 2.08105L5.56344 2.08104L5.56344 2.08103L5.56344 2.08102L5.56344 2.08101C5.54182 1.96423 5.52014 1.84712 5.53294 1.73318C5.565 1.45162 5.61694 1.17188 5.6688 0.892523L5.6688 0.892519C5.68271 0.817608 5.69661 0.742725 5.71012 0.667842C5.71593 0.641502 5.76531 0.603454 5.79726 0.600527ZM3.64789 1.26469C3.71264 1.36111 3.7765 1.45681 3.83991 1.55183L3.83993 1.55185C4.03252 1.84045 4.22096 2.12285 4.41762 2.40027C4.49024 2.50563 4.589 2.59929 4.74875 2.5349C4.99274 2.44124 5.05374 2.37686 4.98112 2.1193C4.89424 1.80625 4.94816 1.50522 5.00228 1.20313C5.00786 1.17196 5.01345 1.14078 5.01888 1.10958C5.03922 0.998361 5.03631 0.875438 5.01017 0.764222C4.99855 0.71154 4.89398 0.632518 4.85332 0.641299C4.40891 0.752515 4.01969 0.97202 3.64789 1.26469ZM2.69913 3.77958C2.90263 3.9293 3.10674 4.07945 3.31445 4.23143C3.24474 4.568 3.06466 4.75824 2.71319 4.79629C2.22812 4.84604 1.81857 4.64702 1.44968 4.3485C1.42935 4.33094 1.42063 4.26655 1.43515 4.23728L1.49971 4.09189C1.59393 3.87924 1.68836 3.66609 1.79242 3.45877C1.82036 3.40046 1.86611 3.35182 1.90991 3.30526L1.90993 3.30525L1.90994 3.30523L1.90996 3.30522L1.90997 3.3052C1.92991 3.284 1.94944 3.26324 1.9667 3.24219C2.213 3.42195 2.455 3.59999 2.69785 3.77864L2.69845 3.77908L2.69891 3.77942L2.69913 3.77958ZM2.82953 5.56696C2.28055 5.4294 1.749 5.29477 1.17679 5.14844C1.16454 5.21634 1.15085 5.28641 1.13686 5.35801L1.13684 5.35811C1.11104 5.49018 1.08422 5.62747 1.06351 5.76598C1.04362 5.89712 1.03049 6.0294 1.0171 6.16422V6.16423L1.01709 6.16429L1.01709 6.16436L1.01708 6.16445L1.01707 6.16454C1.00896 6.24625 1.00075 6.32889 0.990891 6.41279C1.44982 6.644 1.92037 6.70839 2.38512 6.43913C2.71624 6.25182 2.84696 5.94158 2.82953 5.56696ZM1.01047 7.11974C0.923335 7.58216 0.993047 8.01824 1.15571 8.44262C1.17023 8.47774 1.20799 8.51579 1.24285 8.5275C1.92834 8.75871 2.70097 8.29629 2.80845 7.67289C2.82297 7.58801 2.82878 7.49728 2.82297 7.41241C2.78811 7.04071 2.7184 6.98803 2.35823 7.04071L2.25446 7.05589C2.00726 7.09216 1.75978 7.12846 1.51007 7.149C1.40038 7.15704 1.28795 7.14576 1.17184 7.13411C1.11885 7.1288 1.06509 7.1234 1.01047 7.11974ZM2.96266 9.86797C3.19503 9.37042 3.12241 9.01336 2.73029 8.70312C2.32364 9.01336 1.85309 9.1275 1.34768 9.14506C1.31282 9.14506 1.25473 9.19482 1.24602 9.23287C1.16759 9.60456 1.27797 9.93528 1.48419 10.2397C1.50071 10.2637 1.53228 10.2761 1.56795 10.29C1.58874 10.2981 1.61093 10.3068 1.63233 10.3187L1.60274 10.3389L1.6027 10.3389L1.60261 10.339C1.5787 10.3554 1.55542 10.3715 1.53067 10.386C1.00203 10.705 0.575044 11.1235 0.32234 11.6943C-0.00878811 12.4464 -0.127877 13.222 0.171301 14.021C0.225149 14.1646 0.27468 14.3109 0.324131 14.4569C0.365372 14.5786 0.406557 14.7002 0.450145 14.82C0.595377 15.2239 0.606997 15.6395 0.49081 16.0434C0.148064 17.2229 0.470478 18.3058 0.926506 19.374C0.966525 19.4633 1.03186 19.5441 1.09483 19.622L1.09788 19.6257C1.18502 19.734 1.2983 19.7691 1.43482 19.7223C1.57134 19.6725 1.67009 19.5818 1.66428 19.4384C1.65847 19.254 1.63524 19.0696 1.59167 18.8911C1.55826 18.7492 1.5176 18.6087 1.47693 18.4682L1.47693 18.4682L1.47692 18.4681L1.47691 18.4681L1.4769 18.4681L1.47689 18.4681L1.47688 18.468L1.47687 18.468L1.47687 18.468L1.47686 18.4679L1.47685 18.4679L1.47684 18.4679L1.47683 18.4678L1.47682 18.4678L1.47681 18.4678L1.47681 18.4678L1.4768 18.4677L1.47679 18.4677C1.43617 18.3274 1.39556 18.1871 1.3622 18.0453C1.26925 17.6443 1.38834 17.3136 1.71366 17.0648L1.73206 17.051L1.75473 17.0334L1.75479 17.0334C1.78356 17.0111 1.81184 16.9891 1.84147 16.9712C2.33235 16.6873 2.63443 16.2424 2.88423 15.7478C2.95399 15.6072 3.04426 15.4763 3.1344 15.3455L3.13441 15.3455L3.13444 15.3455L3.13447 15.3454L3.13449 15.3454L3.13452 15.3454L3.13455 15.3453L3.13458 15.3453L3.13461 15.3452L3.13464 15.3452L3.13467 15.3451L3.13469 15.3451L3.13472 15.3451L3.13475 15.345L3.13478 15.345L3.13481 15.3449L3.13484 15.3449L3.13487 15.3448L3.13489 15.3448C3.17596 15.2853 3.21699 15.2257 3.25602 15.1654L3.29088 15.1829C3.30831 15.2649 3.3261 15.3468 3.34389 15.4288L3.3439 15.4288L3.3439 15.4288L3.3439 15.4288L3.34391 15.4289L3.34391 15.4289L3.34391 15.4289L3.34391 15.4289L3.34392 15.4289L3.34392 15.4289L3.34392 15.4289L3.34393 15.429L3.34393 15.429L3.34393 15.429L3.34394 15.429L3.34394 15.429L3.34394 15.429L3.34394 15.429C3.3973 15.6748 3.45065 15.9206 3.4942 16.1663C3.68882 17.2346 4.31622 18.0394 5.04238 18.7887C5.114 18.8637 5.20824 18.9189 5.29721 18.9709L5.30089 18.9731C5.42288 19.0462 5.54778 19.0462 5.66397 18.9496C5.78306 18.8501 5.82663 18.7243 5.77434 18.5838C5.72206 18.4492 5.65526 18.3175 5.57393 18.1975C5.48958 18.0747 5.39852 17.957 5.30751 17.8394L5.3075 17.8394C5.22927 17.7383 5.15108 17.6373 5.07723 17.5331C4.73158 17.0473 4.71706 16.7048 5.0569 16.219C5.32703 15.8297 5.51293 15.4054 5.67849 14.9459C5.72473 14.9675 5.77017 14.9876 5.81466 15.0072C5.89037 15.0407 5.96334 15.0729 6.03286 15.1098C6.7474 15.5019 7.186 16.1195 7.44742 16.8775C7.55356 17.1798 7.64503 17.4876 7.73641 17.795L7.73641 17.795L7.73642 17.7951L7.73642 17.7951L7.73643 17.7951L7.73643 17.7951L7.73644 17.7951L7.73645 17.7952L7.73645 17.7952L7.73646 17.7952L7.73646 17.7952L7.73647 17.7952L7.73647 17.7952L7.73648 17.7953L7.73649 17.7953L7.73649 17.7953L7.7365 17.7953L7.7365 17.7953L7.73661 17.7957C7.7602 17.875 7.78377 17.9544 7.80759 18.0336C7.89183 18.3145 8.02834 18.5633 8.21424 18.7857L8.42675 19.0386C8.75904 19.4341 9.09075 19.829 9.42838 20.2198C9.52423 20.3311 9.64042 20.4364 9.76532 20.5154C9.99188 20.6589 10.2126 20.615 10.4218 20.413C10.5728 20.2667 10.5989 20.0852 10.4624 19.854C10.3841 19.7208 10.2831 19.6001 10.1838 19.4814L10.1837 19.4814C10.1652 19.4592 10.1467 19.4371 10.1284 19.415C10.0703 19.3448 10.0035 19.2774 9.93379 19.2189C9.34414 18.7126 9.19891 18.0424 9.22505 17.3077C9.22928 17.1844 9.24423 17.061 9.25878 16.9411C9.26425 16.8959 9.26967 16.8513 9.27443 16.8073C9.36486 16.7899 9.45423 16.7725 9.54165 16.7554L9.54352 16.7551C9.70535 16.7235 9.86051 16.6933 10.0035 16.6668C10.0577 16.787 10.1083 16.9099 10.1591 17.033C10.269 17.2994 10.3793 17.5669 10.5263 17.8111C10.7426 18.1711 10.9988 18.5062 11.2549 18.8412L11.2549 18.8412C11.3153 18.9202 11.3756 18.9991 11.4355 19.0784C11.5371 19.213 11.6737 19.3213 11.8596 19.2774C11.9583 19.254 12.0338 18.9848 11.9845 18.7945C11.938 18.616 11.8828 18.4345 11.7928 18.2765C11.3919 17.5653 11.238 16.7839 11.1305 15.9907C11.0753 15.5868 10.8371 15.4054 10.4363 15.4844C9.68689 15.6336 8.93459 15.7068 8.17067 15.6395C8.11839 15.6336 8.0661 15.6219 8.01382 15.6102C7.47356 15.4815 7.25861 14.9781 7.53746 14.4893C7.54617 14.4717 7.55489 14.4542 7.56941 14.4395C7.82909 14.1757 7.96985 13.848 8.11118 13.5189C8.16113 13.4026 8.21115 13.2861 8.26652 13.1723C8.3769 12.9498 8.58603 12.7625 8.78645 12.5986C9.03335 12.3996 9.33543 12.3001 9.64623 12.2328C9.6898 12.224 9.7537 12.183 9.76241 12.1479C9.77113 12.1069 9.73627 12.0308 9.70141 12.0133C9.67928 12.0027 9.65702 11.9919 9.63464 11.981L9.63451 11.981C9.50131 11.9162 9.36386 11.8493 9.22215 11.8318C8.98978 11.8025 8.74869 11.8084 8.51342 11.8318C8.252 11.8582 8.01963 11.7762 7.80178 11.6708C7.56941 11.5596 7.34866 11.4074 7.13952 11.2552C6.56731 10.8367 5.98929 10.4299 5.33284 10.1519C4.62992 9.85041 3.90085 9.7509 3.14565 9.86211C3.09046 9.85626 3.02946 9.85919 2.96266 9.86797ZM6.14879 9.29999C5.91642 9.44633 5.66371 9.51072 5.39068 9.51072C5.12926 9.50194 4.87946 9.44925 4.66742 9.28536C4.43215 9.10683 4.3421 8.84342 4.47862 8.58879C4.56574 8.42858 4.68718 8.28812 4.80861 8.14766L4.80862 8.14765L4.80862 8.14765L4.80862 8.14764L4.80862 8.14764L4.80863 8.14764L4.80863 8.14763L4.80863 8.14763L4.80864 8.14762L4.80864 8.14762L4.80864 8.14761L4.80864 8.14761L4.80865 8.14761L4.80865 8.1476L4.80865 8.1476L4.80866 8.14759L4.80866 8.14759C4.84914 8.10076 4.88963 8.05393 4.92884 8.00637C4.94917 7.98296 4.99855 7.97418 5.0334 7.97711C5.66371 8.03857 6.15169 8.47465 6.26497 9.02488C6.29402 9.15951 6.25626 9.23268 6.14879 9.29999ZM2.99397 1.77344C3.3251 2.02514 3.78984 2.59878 4.10645 3.14022L4.07377 3.18188C3.99885 3.27735 3.92809 3.36752 3.85955 3.46217C3.79855 3.54704 3.72594 3.56753 3.62137 3.53533C3.08401 3.36266 2.71512 2.97633 2.3259 2.56073C2.55246 2.2944 2.77322 2.03392 2.99397 1.77344ZM7.52546 3.57196C7.7648 3.36422 8.05634 3.32791 8.34961 3.29139C8.41581 3.28315 8.4821 3.27489 8.54789 3.26465C8.69894 3.24124 8.84998 3.19733 8.99521 3.15051C9.02716 3.1388 9.07363 3.08027 9.06783 3.051C9.02426 2.76125 8.93421 2.48906 8.69313 2.30175C8.65246 2.26956 8.58565 2.24907 8.53918 2.25492C8.18481 2.31053 7.85659 2.43346 7.56322 2.64125L7.56321 2.64126C7.52836 2.6676 7.49351 2.69394 7.46156 2.7232C7.15948 3.00417 7.17981 3.32318 7.52546 3.57196ZM7.63965 8.37517C7.34628 7.84835 6.06824 7.34495 5.73711 7.62885C5.73711 7.63763 5.73711 7.65226 5.74292 7.65519C6.13795 8.00054 6.42261 8.43663 6.69855 8.87856C6.76535 8.98685 6.83216 8.99271 6.93673 8.95759C7.18072 8.87564 7.45956 8.64735 7.63965 8.37517ZM9.59077 14.0528C9.5472 14.2782 9.45716 14.3455 9.22479 14.3514C9.18396 14.3437 9.14313 14.3376 9.10251 14.3316C9.01885 14.3191 8.93606 14.3067 8.8559 14.2811C8.59448 14.2021 8.4812 14.0177 8.53058 13.7455C8.54801 13.646 8.58577 13.5494 8.62934 13.4587C8.78619 13.1397 9.0447 12.9143 9.34097 12.7329C9.44263 12.6714 9.56463 12.6334 9.68081 12.6129C9.73451 12.6025 9.79409 12.6172 9.85327 12.6319C9.87732 12.6378 9.90131 12.6438 9.9248 12.648C9.91989 12.6695 9.91612 12.6921 9.91234 12.7149C9.90273 12.7727 9.89299 12.8313 9.86381 12.8734C9.69534 13.1163 9.64596 13.3885 9.63144 13.6753C9.62563 13.8011 9.61401 13.9299 9.59077 14.0528ZM9.05341 13.6255C8.92561 13.6255 8.81233 13.7397 8.81523 13.8684C8.81535 13.8736 8.81563 13.8788 8.81607 13.8839C8.81579 13.8799 8.8156 13.876 8.81551 13.872C8.81551 13.7432 8.92589 13.6291 9.05369 13.6291C9.17575 13.6291 9.27755 13.7235 9.28812 13.8456C9.27924 13.7218 9.17665 13.6255 9.05341 13.6255ZM7.61266 4.38314L7.9501 4.4112L7.95017 4.41121L7.9502 4.41121L7.95025 4.41122L7.95026 4.41122L7.95027 4.41122L7.95028 4.41122L7.95029 4.41122C8.39263 4.44793 8.82611 4.48391 9.25959 4.52362C9.38739 4.53533 9.42806 4.48557 9.43968 4.36558C9.46291 4.10802 9.37577 3.90608 9.16083 3.76559C8.79775 3.53145 8.15002 3.57243 7.81889 3.8534C7.65042 3.99388 7.5778 4.17241 7.61266 4.38314ZM7.35162 1.01562C7.70017 1.20586 8.0313 1.39903 8.26367 1.72975C7.72922 2.04584 7.21219 2.35315 6.69517 2.66338C6.59931 2.51119 6.5877 2.40875 6.65741 2.1951C6.78993 1.7836 7.04082 1.44061 7.29517 1.09289L7.35162 1.01562ZM7.51126 7.67374L7.51126 7.67374C7.69033 7.81171 7.87146 7.95125 8.0715 8.07131L8.15326 7.94193L8.15329 7.94189C8.26129 7.77121 8.3667 7.60464 8.46653 7.4362C8.48106 7.41279 8.47234 7.34548 8.4491 7.32791C8.0715 7.02939 7.66485 6.7894 7.16816 6.76598C6.92127 6.76013 6.70051 6.82452 6.56109 7.0967C6.92339 7.22082 7.21451 7.44511 7.51126 7.67374ZM9.32417 5.15228C9.31836 5.39206 9.31242 5.63763 9.15862 5.83938C9.09825 5.81937 9.03853 5.79914 8.97922 5.77906C8.82167 5.72569 8.66705 5.67331 8.51089 5.62866C8.23494 5.55549 7.959 5.48818 7.68016 5.42671C7.57559 5.4033 7.55235 5.35062 7.56688 5.25111C7.60464 4.976 7.79344 4.80625 8.11295 4.79454C8.5225 4.77698 8.90011 4.91454 9.269 5.07843C9.29514 5.09014 9.32418 5.12819 9.32418 5.1516L9.32417 5.15228ZM8.12957 14.2686L8.12952 14.2687L8.12946 14.2687L8.12939 14.2688C8.07214 14.3381 8.01949 14.4018 7.96763 14.4664C7.94981 14.4886 7.93125 14.5103 7.91274 14.532C7.86789 14.5845 7.82335 14.6367 7.79045 14.6947C7.68297 14.882 7.73526 15.0869 7.93277 15.1717C8.08962 15.239 8.2639 15.283 8.43237 15.3005C8.88259 15.3503 9.327 15.3064 9.7627 15.1747C9.73365 14.9698 9.6407 14.8761 9.43738 14.8556C9.33588 14.8465 9.23326 14.8431 9.13091 14.8397L9.13086 14.8397L9.1308 14.8397L9.13073 14.8396C9.06912 14.8376 9.0076 14.8355 8.94649 14.8322C8.55146 14.8088 8.48756 14.7474 8.40913 14.361C8.3955 14.2963 8.3688 14.2328 8.34043 14.1654C8.32649 14.1323 8.31215 14.0982 8.29876 14.0625C8.23676 14.1389 8.18129 14.206 8.12957 14.2686ZM8.6651 6.90304C8.20035 6.66012 7.7269 6.44939 7.20116 6.34403C7.27668 5.96941 7.52357 5.80258 7.91279 5.85234C8.30492 5.89916 8.65348 6.06306 8.97299 6.28842C9.00494 6.31183 9.0456 6.36451 9.03689 6.38793C8.97299 6.55183 8.90618 6.71865 8.82195 6.87377C8.80452 6.90304 8.70286 6.92352 8.6651 6.90304ZM9.93933 13.4387C9.93933 13.7431 9.98871 13.7929 10.2211 13.749C10.3169 13.7314 10.4186 13.6904 10.497 13.6319C10.7991 13.4065 10.8833 12.8622 10.6742 12.5607C10.6248 12.4905 10.5813 12.4612 10.4999 12.5197C10.163 12.7685 9.95385 13.0817 9.93933 13.4387Z" fill="#F58021"/>
</svg>
